<svg xmlns="http://www.w3.org/2000/svg" xmlns:xlink="http://www.w3.org/1999/xlink" width="500" zoomAndPan="magnify" viewBox="0 0 375 374.999991" height="500" preserveAspectRatio="xMidYMid meet" version="1.0"><defs><clipPath id="id1"><path d="M 4 126.304688 L 371 126.304688 L 371 248.554688 L 4 248.554688 Z M 4 126.304688 " clip-rule="nonzero"/></clipPath></defs><g clip-path="url(#id1)"><path fill="#29abe2" d="M 289.742188 145.929688 L 370.207031 191.847656 L 289.742188 126.304688 L 222.144531 181.367188 L 154.539062 126.304688 L 4.457031 248.554688 L 154.539062 162.910156 L 304.632812 248.554688 L 224.410156 183.207031 Z M 289.742188 145.929688 " fill-opacity="1" fill-rule="nonzero"/></g><path fill="#0071bc" d="M 282.058594 177.449219 L 290.597656 177.449219 L 290.597656 185.984375 L 282.058594 185.984375 Z M 282.058594 177.449219 " fill-opacity="1" fill-rule="nonzero"/><path fill="#0071bc" d="M 294.261719 177.449219 L 302.804688 177.449219 L 302.804688 185.984375 L 294.261719 185.984375 Z M 294.261719 177.449219 " fill-opacity="1" fill-rule="nonzero"/><path fill="#0071bc" d="M 282.058594 189.164062 L 290.597656 189.164062 L 290.597656 197.699219 L 282.058594 197.699219 Z M 282.058594 189.164062 " fill-opacity="1" fill-rule="nonzero"/><path fill="#0071bc" d="M 294.261719 189.164062 L 302.804688 189.164062 L 302.804688 197.699219 L 294.261719 197.699219 Z M 294.261719 189.164062 " fill-opacity="1" fill-rule="nonzero"/><path fill="#0071bc" d="M 133.800781 198.285156 L 150.886719 198.285156 L 150.886719 215.363281 L 133.800781 215.363281 Z M 133.800781 198.285156 " fill-opacity="1" fill-rule="nonzero"/><path fill="#0071bc" d="M 158.203125 198.285156 L 175.289062 198.285156 L 175.289062 215.363281 L 158.203125 215.363281 Z M 158.203125 198.285156 " fill-opacity="1" fill-rule="nonzero"/><path fill="#0071bc" d="M 133.800781 221.710938 L 150.886719 221.710938 L 150.886719 238.789062 L 133.800781 238.789062 Z M 133.800781 221.710938 " fill-opacity="1" fill-rule="nonzero"/><path fill="#0071bc" d="M 158.203125 221.710938 L 175.289062 221.710938 L 175.289062 238.789062 L 158.203125 238.789062 Z M 158.203125 221.710938 " fill-opacity="1" fill-rule="nonzero"/></svg>